<svg width="18" height="14" viewBox="0 0 18 14" fill="none" xmlns="http://www.w3.org/2000/svg">
<path d="M9.80918 10.757C9.80918 9.877 10.0392 9.139 10.4992 8.54C10.8252 8.128 11.2672 7.857 11.8262 7.728C12.3762 7.6 12.8962 7.591 13.3662 7.7C13.5262 6.75 13.2662 5.744 12.6062 4.678C11.9462 3.613 11.0912 2.811 10.0482 2.275L11.6282 0C12.4282 0.396 13.1882 0.898 13.8882 1.505C14.5982 2.112 15.2282 2.81 15.7882 3.599C16.3482 4.388 16.7682 5.279 17.0382 6.289C17.3082 7.299 17.3842 8.329 17.2552 9.389C17.0872 10.789 16.6352 11.909 15.8992 12.739C15.1642 13.579 14.2472 13.999 13.1512 13.999C12.1862 13.999 11.3852 13.709 10.7512 13.121C10.1232 12.545 9.81118 11.756 9.81118 10.753L9.80918 10.756V10.757ZM0.685177 10.757C0.685177 9.877 0.915178 9.139 1.37518 8.54C1.70118 8.12 2.14518 7.848 2.70218 7.723C3.26218 7.599 3.77618 7.593 4.24218 7.701C4.40218 6.761 4.15218 5.751 3.49218 4.681C2.83218 3.621 1.97818 2.821 0.935177 2.281L2.51118 0C3.31118 0.396 4.06618 0.898 4.77118 1.505C5.47918 2.112 6.11118 2.81 6.66518 3.599C7.22118 4.389 7.63518 5.279 7.90518 6.289C8.17818 7.289 8.25018 8.329 8.12218 9.389C7.95718 10.789 7.50718 11.909 6.77218 12.739C6.04018 13.572 5.12618 13.989 4.03018 13.989C3.06318 13.989 2.26218 13.699 1.62818 13.113C1.00118 12.537 0.686176 11.748 0.686176 10.745V10.755L0.685177 10.757Z" fill="#E6DBFF"/>
</svg>
