<svg width="18" height="14" viewBox="0 0 18 14" fill="none" xmlns="http://www.w3.org/2000/svg">
<path d="M8.19082 10.757C8.19082 9.877 7.96082 9.139 7.50082 8.54C7.17482 8.128 6.73282 7.857 6.17382 7.728C5.62382 7.6 5.10382 7.591 4.63382 7.7C4.47382 6.75 4.73382 5.744 5.39382 4.678C6.05382 3.613 6.90882 2.811 7.95182 2.275L6.37182 0C5.57182 0.396 4.81182 0.898 4.11182 1.505C3.40182 2.112 2.77182 2.81 2.21182 3.599C1.65182 4.388 1.23182 5.279 0.961822 6.289C0.691822 7.299 0.615822 8.329 0.744822 9.389C0.912822 10.789 1.36482 11.909 2.10082 12.739C2.83582 13.579 3.75282 13.999 4.84882 13.999C5.81382 13.999 6.61482 13.709 7.24882 13.121C7.87682 12.545 8.18882 11.756 8.18882 10.753L8.19082 10.756V10.757ZM17.3148 10.757C17.3148 9.877 17.0848 9.139 16.6248 8.54C16.2988 8.12 15.8548 7.848 15.2978 7.723C14.7378 7.599 14.2238 7.593 13.7578 7.701C13.5978 6.761 13.8478 5.751 14.5078 4.681C15.1678 3.621 16.0218 2.821 17.0648 2.281L15.4888 0C14.6888 0.396 13.9338 0.898 13.2288 1.505C12.5208 2.112 11.8888 2.81 11.3348 3.599C10.7788 4.389 10.3648 5.279 10.0948 6.289C9.82182 7.289 9.74982 8.329 9.87782 9.389C10.0428 10.789 10.4928 11.909 11.2278 12.739C11.9598 13.572 12.8738 13.989 13.9698 13.989C14.9368 13.989 15.7378 13.699 16.3718 13.113C16.9988 12.537 17.3138 11.748 17.3138 10.745V10.755L17.3148 10.757Z" fill="#E6DBFF"/>
</svg>
